<?xml version="1.0" encoding="UTF-8"?>
<svg id="Capa_1" data-name="Capa 1" xmlns="http://www.w3.org/2000/svg" viewBox="0 0 80 80">
  <defs>
    <style>
      .cls-1 {
        fill: #ec6164;
      }

      .cls-1, .cls-2 {
        stroke-width: 0px;
      }

      .cls-2 {
        fill: #fff;
      }
    </style>
  </defs>
  <circle class="cls-1" cx="40" cy="40" r="40"/>
  <path class="cls-2" d="M40,68.78c-15.87,0-28.78-12.91-28.78-28.78s12.91-28.78,28.78-28.78,28.78,12.91,28.78,28.78-12.91,28.78-28.78,28.78ZM40,15.49c-13.52,0-24.51,11-24.51,24.51s11,24.51,24.51,24.51,24.51-11,24.51-24.51-11-24.51-24.51-24.51ZM51.97,45.13h-14.92c-1.18,0-2.13-.95-2.13-2.13v-14.92c0-1.18.95-2.13,2.13-2.13s2.13.95,2.13,2.13v12.79h12.79c1.18,0,2.13.95,2.13,2.13s-.95,2.13-2.13,2.13Z"/>
</svg>