<?xml version="1.0" encoding="UTF-8"?>
<svg id="Capa_1" data-name="Capa 1" xmlns="http://www.w3.org/2000/svg" viewBox="0 0 80 80">
  <defs>
    <style>
      .cls-1 {
        fill: #fff;
        fill-rule: evenodd;
      }

      .cls-1, .cls-2 {
        stroke-width: 0px;
      }

      .cls-2 {
        fill: #ec6164;
      }
    </style>
  </defs>
  <circle class="cls-2" cx="40" cy="40" r="40"/>
  <path class="cls-1" d="M29.58,63.71c1.14-.88,2.48-2.24,4.45-4.25l2.84-2.88c-1.95-1.53-4.13-3.71-6.83-6.41l-.21-.21c-2.82-2.82-5.07-5.07-6.61-7.08l-.04-.05-2.72,2.76c-1.98,2.01-3.31,3.37-4.18,4.53-.83,1.11-1.05,1.79-1.05,2.41s.22,1.3,1.05,2.41c.87,1.16,2.21,2.52,4.18,4.53,1.98,2.01,3.32,3.37,4.46,4.25,1.09.85,1.75,1.05,2.33,1.05s1.23-.21,2.33-1.05ZM21.13,39.18l-3.62,3.68c-1.85,1.88-3.38,3.44-4.43,4.83-1.1,1.47-1.86,2.99-1.86,4.82s.75,3.35,1.86,4.82c1.05,1.4,2.58,2.96,4.43,4.84l.2.2c1.85,1.88,3.38,3.44,4.76,4.51,1.45,1.12,2.96,1.9,4.79,1.9s3.34-.78,4.79-1.9c1.38-1.07,2.91-2.62,4.76-4.51l3.61-3.66c1.04.43,2.15.65,3.28.65,2.42,0,4.47-1,6.56-2.59,2.01-1.53,4.27-3.79,7.08-6.61l2.26-2.26c2.81-2.81,5.07-5.07,6.61-7.08,1.59-2.08,2.59-4.14,2.59-6.56s-1-4.47-2.59-6.55c-1.53-2.01-3.79-4.27-6.61-7.08l-.21-.21c-2.82-2.81-5.07-5.07-7.08-6.61-2.08-1.59-4.13-2.59-6.55-2.59s-4.47,1-6.56,2.59c-2.01,1.53-4.27,3.79-7.08,6.61l-2.26,2.26c-2.82,2.81-5.07,5.07-6.61,7.08-1.59,2.08-2.59,4.14-2.59,6.56,0,1.01.17,1.95.49,2.86ZM41.22,54.67c.92.49,1.69.68,2.46.68,1.19,0,2.39-.45,4.12-1.77,1.77-1.35,3.84-3.41,6.78-6.36l2.05-2.05c2.94-2.94,5.01-5.01,6.36-6.78,1.32-1.73,1.77-2.93,1.77-4.12s-.45-2.39-1.77-4.12c-1.35-1.77-3.41-3.84-6.36-6.78-2.94-2.94-5.01-5.01-6.78-6.36-1.72-1.32-2.93-1.77-4.12-1.77s-2.4.45-4.12,1.77c-1.77,1.35-3.84,3.41-6.78,6.36l-2.05,2.05c-2.94,2.94-5.01,5.01-6.36,6.78-1.32,1.72-1.77,2.93-1.77,4.12s.45,2.39,1.77,4.12c1.35,1.77,3.41,3.84,6.36,6.78,2.94,2.94,5.01,5.01,6.78,6.36.38.29.78.57,1.19.82.17.07.33.16.47.27ZM26.28,59.4c-.38-.38-.59-.89-.59-1.42s.21-1.04.59-1.42l1.9-1.9c.38-.35.88-.55,1.4-.54.52,0,1.02.22,1.38.59.37.37.58.86.59,1.38,0,.52-.18,1.02-.54,1.4l-1.89,1.9c-.38.38-.89.59-1.42.59s-1.04-.21-1.42-.59M20.6,53.72c-.19-.19-.33-.41-.44-.65-.1-.24-.15-.5-.15-.77s.05-.52.15-.77c.1-.24.25-.47.44-.65l1.89-1.89c.38-.37.89-.57,1.41-.56.53,0,1.03.22,1.4.59.37.37.58.88.59,1.4,0,.53-.2,1.03-.56,1.41l-1.89,1.9c-.38.38-.89.59-1.42.59s-1.04-.21-1.42-.59ZM59.48,35.68c-.19.19-.41.33-.65.44-.24.1-.5.15-.77.15s-.52-.05-.77-.15c-.24-.1-.47-.25-.65-.44l-12.32-12.32c-.35-.38-.55-.88-.54-1.4,0-.52.22-1.02.59-1.38.37-.37.86-.58,1.38-.59.52,0,1.02.18,1.4.54l12.32,12.32c.38.38.59.89.59,1.42s-.21,1.04-.59,1.42Z"/>
</svg>