<svg width="30" height="29" viewBox="0 0 30 29" fill="none" xmlns="http://www.w3.org/2000/svg">
<path d="M28.3158 14.4993H10.7411M4.5377 14.4993H2M4.5377 14.4993C4.5377 13.6769 4.86441 12.8881 5.44596 12.3066C6.02751 11.725 6.81626 11.3983 7.63869 11.3983C8.46113 11.3983 9.24988 11.725 9.83143 12.3066C10.413 12.8881 10.7397 13.6769 10.7397 14.4993C10.7397 15.3217 10.413 16.1105 9.83143 16.692C9.24988 17.2736 8.46113 17.6003 7.63869 17.6003C6.81626 17.6003 6.02751 17.2736 5.44596 16.692C4.86441 16.1105 4.5377 15.3217 4.5377 14.4993ZM28.3158 23.8976H20.1394M20.1394 23.8976C20.1394 24.7202 19.8119 25.5098 19.2302 26.0915C18.6485 26.6732 17.8596 27 17.037 27C16.2145 27 15.4258 26.6719 14.8442 26.0903C14.2627 25.5088 13.936 24.72 13.936 23.8976M20.1394 23.8976C20.1394 23.075 19.8119 22.2867 19.2302 21.7051C18.6485 21.1234 17.8596 20.7966 17.037 20.7966C16.2145 20.7966 15.4258 21.1233 14.8442 21.7048C14.2627 22.2864 13.936 23.0751 13.936 23.8976M13.936 23.8976H2M28.3158 5.101H23.899M17.6956 5.101H2M17.6956 5.101C17.6956 4.27856 18.0223 3.48981 18.6039 2.90826C19.1854 2.32671 19.9742 2 20.7966 2C21.2038 2 21.6071 2.08021 21.9833 2.23605C22.3595 2.39189 22.7014 2.62031 22.9893 2.90826C23.2773 3.19621 23.5057 3.53807 23.6615 3.9143C23.8174 4.29053 23.8976 4.69377 23.8976 5.101C23.8976 5.50822 23.8174 5.91147 23.6615 6.2877C23.5057 6.66393 23.2773 7.00578 22.9893 7.29373C22.7014 7.58168 22.3595 7.8101 21.9833 7.96594C21.6071 8.12178 21.2038 8.20199 20.7966 8.20199C19.9742 8.20199 19.1854 7.87528 18.6039 7.29373C18.0223 6.71218 17.6956 5.92343 17.6956 5.101Z" stroke="black" stroke-width="3" stroke-miterlimit="10" stroke-linecap="round"/>
</svg>
