<?xml version="1.0" encoding="UTF-8"?>
<svg id="Capa_1" data-name="Capa 1" xmlns="http://www.w3.org/2000/svg" viewBox="0 0 80 80">
  <defs>
    <style>
      .cls-1 {
        fill: #ec6164;
      }

      .cls-1, .cls-2 {
        stroke-width: 0px;
      }

      .cls-2 {
        fill: #fff;
      }
    </style>
  </defs>
  <circle class="cls-1" cx="40" cy="40" r="40"/>
  <g>
    <path class="cls-2" d="M20.39,50.85c1.2,0,2.18-.97,2.18-2.17s-.98-2.17-2.18-2.17-2.18.97-2.18,2.17.98,2.17,2.18,2.17Z"/>
    <path class="cls-2" d="M40,33.49c1.2,0,2.18-.97,2.18-2.17s-.98-2.17-2.18-2.17-2.18.97-2.18,2.17.98,2.17,2.18,2.17Z"/>
    <path class="cls-2" d="M59.61,50.85c1.2,0,2.18-.97,2.18-2.17s-.98-2.17-2.18-2.17-2.18.97-2.18,2.17.98,2.17,2.18,2.17Z"/>
    <path class="cls-2" d="M26.93,40c1.2,0,2.18-.97,2.18-2.17s-.98-2.17-2.18-2.17-2.18.97-2.18,2.17.98,2.17,2.18,2.17Z"/>
    <path class="cls-2" d="M70.51,50.85h-4.36c0-2.74-.42-5.43-1.26-8.01l4.15-1.33c.98,3.01,1.47,6.16,1.47,9.35ZM70.18,26.93l-5.31,5.28c-.82.81-1.93,1.27-3.08,1.27-.86,0-1.7-.26-2.42-.74-.72-.48-1.27-1.15-1.6-1.95-.33-.79-.42-1.66-.25-2.5.17-.84.58-1.61,1.19-2.22l5.31-5.29c-.73-.2-1.48-.31-2.23-.32-4.81,0-8.72,3.89-8.72,8.68,0,1.61.47,3.09,1.24,4.38l-9.91,9.87c-1.33-.8-2.85-1.22-4.4-1.23-4.8,0-8.72,3.89-8.72,8.68s3.91,8.68,8.72,8.68,8.72-3.89,8.72-8.68c0-1.61-.47-3.09-1.23-4.38l9.91-9.86c1.33.8,2.85,1.22,4.4,1.23,4.81,0,8.72-3.89,8.72-8.68-.01-.75-.12-1.5-.33-2.22ZM40,55.19c-2.4,0-4.36-1.95-4.36-4.34s1.95-4.34,4.36-4.34,4.36,1.95,4.36,4.34-1.95,4.34-4.36,4.34ZM13.85,50.85h-4.36c0-16.75,13.68-30.37,30.51-30.37,3.2,0,6.36.49,9.39,1.46l-1.34,4.13c-2.6-.83-5.32-1.26-8.05-1.26-14.42,0-26.15,11.68-26.15,26.03Z"/>
  </g>
</svg>