<?xml version="1.0" encoding="UTF-8"?>
<svg id="Capa_1" data-name="Capa 1" xmlns="http://www.w3.org/2000/svg" viewBox="0 0 60.9 12.85">
  <defs>
    <style>
      .cls-1 {
        fill: #fff;
        stroke-width: 0px;
      }
    </style>
  </defs>
  <g id="surface1">
    <path class="cls-1" d="m18.57,0c-1.55.1-2.23.84-2.73,1.37-.54.57-.84,1.76-.84,1.76V.02h-6.06c-.46,0-.89.19-1.22.65-.34.45-1.72,2.74-1.72,2.74h23.95V0h-11.38Zm30.16,0c-1.54.1-2.23.84-2.73,1.37-.54.57-.84,1.76-.84,1.76v.28h15.75V0h-12.18Zm-18.18.01v3.4h3.41V.01h-3.41ZM41.72.01v3.4h3.4V.01h-3.4ZM5.85,3.62L0,12.82h4l5.64-8.8-3.78-.41h0Zm24.72.05v4.96c0-.1-.01-.25-.01-.25-.08-.51-1.05-2.75-3.12-2.94-1.24-.12-12.28-1-12.28-1,.22,1.11.71,1.68,1.05,1.99.77.73,1.99.95,1.99.95.29.02,8.51.71,8.51.71.27.01.76.08.75.74,0,.08-.07.65-.7.65h-11.91v-5.06l-3.31-.24s-.01,8.65-.01,8.65h15.92c2.77-.55,3.06-3.09,3.06-3.09.05-.28.07-.52.07-.74v.7c.54,2.89,3.16,3.12,3.16,3.12,0,0,.26.01.31.02h7.77s3.32-.27,3.32-3.47l-.02-4.74-3.35-.21v3.94s-.01,1.13-1.11,1.13h-5.73s-.98-.08-.98-1.12V3.91l-3.37-.24Zm14.78.98c.33,1.14.77,1.49,1.11,1.81.77.75,1.91.92,1.91.92.29.02,8.6.72,8.6.72.26.01.81.04.81.69,0,.19-.1.4-.22.51,0,0-.29.16-.57.16h-11.83l-.04,3.41h12.19c3.06-.18,3.49-3.09,3.49-3.09.11-.76.02-1.39.02-1.39-.08-.69-1.06-2.76-3.14-2.96-1.23-.12-12.34-.77-12.34-.77Z"/>
  </g>
</svg>