<?xml version="1.0" encoding="UTF-8"?>
<svg id="Capa_1" data-name="Capa 1" xmlns="http://www.w3.org/2000/svg" viewBox="0 0 19.12 18.49">
  <defs>
    <style>
      .cls-1 {
        fill: #fff;
        stroke-width: 0px;
      }
    </style>
  </defs>
  <path class="cls-1" d="m10.41,0s1.52,3.1,1.25,4.39c0,0,3.98,1.29,4.41,3.41,0-.02,2.17-2.87-5.66-7.81h0Zm-1.54,4.64c.38.81.57,1.7.79,2.6l-2.26-.86c.2-1.38-1.13-3.46-1.13-3.46l2.6,1.72h0Zm-4.03,2.13c.25.66.55,1.49.68,2.22l-2.04-.5c.2-1.38-1.08-3.03-1.08-3.03l2.44,1.32h0Z"/>
  <path class="cls-1" d="m9.3,3.47s9.11,6.4,9.73,8.89c.45,1.87-.86,3.6-.86,3.6,0,0-.7-4.89-18.17,2.53,1.76-1.97,2.74-4.5,2.47-7.22-.11-1.11-.38-2.18-.86-3.12l4.09,2.15c0,.07,0,.13.02.2.16,1.65.04,3.28-.34,4.77.84-1.76,1.25-3.78,1.04-5.86-.11-1.27-.43-2.46-.93-3.55l4.36,2.92c.02.13.02.29.04.43.18,1.83,0,3.62-.48,5.25,1.02-1.9,1.54-4.12,1.32-6.4-.16-1.67-.66-3.21-1.45-4.6h0v.02Z"/>
</svg>