<?xml version="1.0" encoding="UTF-8"?>
<svg id="Capa_1" data-name="Capa 1" xmlns="http://www.w3.org/2000/svg" viewBox="0 0 43.18 16.75">
  <defs>
    <style>
      .cls-1 {
        fill: #fff;
        stroke-width: 0px;
      }
    </style>
  </defs>
  <rect class="cls-1" y=".23" width="3.13" height="3.13"/>
  <path class="cls-1" d="m3.05,16.52V5.26H.09v11.26h2.96Zm19.67.11v-2.76c-.43,0-.8-.02-1.07-.07-.31-.04-.55-.16-.7-.31-.16-.16-.26-.38-.31-.67-.04-.28-.07-.65-.07-1.09v-3.94h2.15v-2.54h-2.15V.87h-2.97v10.89c0,.92.08,1.7.23,2.32.16.61.42,1.11.79,1.49.37.38.86.65,1.45.81.6.17,1.36.24,2.26.24h.39Zm17-.11V0h-2.97v16.52h2.97ZM14.74,6.36c-.82-.89-1.98-1.33-3.45-1.33-.71,0-1.36.14-1.95.43-.58.29-1.08.69-1.47,1.2l-.17.21v-1.61h-2.93v11.26h2.95v-6,.41-.2c.03-1.06.29-1.84.78-2.34.52-.53,1.16-.8,1.88-.8.86,0,1.51.27,1.95.78.42.51.65,1.23.65,2.16h0v.02h0v5.95h2.99v-6.39c.01-1.6-.41-2.87-1.23-3.76h0Zm20.47,4.51c0-.81-.14-1.57-.42-2.28-.29-.7-.69-1.32-1.19-1.86-.51-.53-1.12-.95-1.84-1.25-.71-.3-1.5-.44-2.36-.44-.81,0-1.58.16-2.29.46-.71.31-1.33.72-1.86,1.25-.52.52-.95,1.15-1.25,1.86-.31.71-.46,1.48-.46,2.29s.14,1.58.43,2.29c.29.71.7,1.33,1.21,1.86.51.52,1.15.95,1.88,1.25.73.31,1.55.47,2.41.47,2.51,0,4.07-1.15,5.01-2.21l-2.14-1.62c-.44.53-1.51,1.26-2.85,1.26-.83,0-1.52-.19-2.05-.58-.52-.38-.88-.91-1.07-1.57l-.03-.1h8.84v-1.06h0Zm-8.82-1.03c0-.82.95-2.26,2.98-2.27,2.04,0,2.99,1.43,2.99,2.26h-5.97Z"/>
  <path class="cls-1" d="m43.09,15.05c-.06-.13-.13-.24-.23-.34-.1-.1-.21-.18-.34-.23-.13-.06-.28-.09-.42-.09-.16,0-.29.03-.42.09-.13.06-.24.13-.34.23s-.18.21-.23.34c-.06.13-.09.28-.09.42,0,.16.03.29.09.42.06.13.13.24.23.34.1.1.21.18.34.23.13.06.28.09.42.09.16,0,.29-.03.42-.09.13-.06.24-.13.34-.23.1-.1.18-.21.23-.34.06-.13.09-.28.09-.42s-.03-.29-.09-.42Zm-.18.78c-.04.11-.11.21-.19.29-.08.08-.18.14-.29.19-.11.04-.22.07-.36.07-.12,0-.24-.02-.36-.07-.11-.04-.21-.11-.29-.19-.08-.08-.14-.18-.19-.29-.04-.11-.07-.22-.07-.36,0-.12.02-.24.07-.36.04-.11.11-.21.19-.29.08-.08.18-.14.29-.19.11-.04.22-.07.36-.07.12,0,.24.02.36.07.11.04.21.11.29.19.08.08.14.18.19.29s.07.22.07.36c.01.13-.02.24-.07.36Zm-.62-.27c.09-.01.16-.04.21-.1.06-.06.09-.13.09-.24,0-.12-.03-.21-.11-.28-.07-.07-.19-.1-.33-.1h-.49v1.26h.23v-.51h.17l.31.51h.24l-.32-.53h0Zm-.12-.18h-.28v-.36h.28s.07.01.1.02c.03.01.06.03.07.06.01.02.02.06.02.1s-.01.08-.02.1c-.02.02-.04.04-.07.06-.03.01-.07.02-.1.02Z"/>
</svg>