<?xml version="1.0" encoding="UTF-8"?>
<svg id="Capa_1" data-name="Capa 1" xmlns="http://www.w3.org/2000/svg" viewBox="0 0 47.65 31.51">
  <defs>
    <style>
      .cls-1 {
        fill: #fff;
        stroke-width: 0px;
      }
    </style>
  </defs>
  <path class="cls-1" d="m17.77,9.4v-2.84c.28-.02.56-.04.84-.04,7.79-.25,12.89,6.7,12.89,6.7,0,0-5.51,7.65-11.42,7.65-.79,0-1.56-.12-2.3-.37v-8.63c3.03.37,3.65,1.7,5.45,4.73l4.05-3.4s-2.96-3.88-7.94-3.88c-.53-.02-1.05.02-1.58.07h0Zm0-9.4v4.24l.84-.05c10.82-.37,17.89,8.87,17.89,8.87,0,0-8.1,9.86-16.54,9.86-.74,0-1.46-.07-2.17-.19v2.63c.6.07,1.21.12,1.81.12,7.86,0,13.54-4.02,19.05-8.75.91.74,4.65,2.51,5.42,3.28-5.23,4.38-17.41,7.91-24.32,7.91-.67,0-1.3-.04-1.93-.11v3.7h29.85V0h-29.88Zm0,20.5v2.24c-7.26-1.3-9.28-8.86-9.28-8.86,0,0,3.49-3.86,9.28-4.49v2.46h-.02c-3.03-.37-5.42,2.47-5.42,2.47,0,0,1.35,4.79,5.44,6.17h0Zm-12.89-6.93s4.3-6.35,12.91-7.01v-2.31C8.24,5.02,0,13.08,0,13.08c0,0,4.66,13.5,17.77,14.73v-2.46c-9.61-1.19-12.89-11.79-12.89-11.79Z"/>
</svg>