<?xml version="1.0" encoding="UTF-8"?>
<svg id="Capa_1" data-name="Capa 1" xmlns="http://www.w3.org/2000/svg" viewBox="0 0 62.74 12.85">
  <defs>
    <style>
      .cls-1 {
        fill: #fff;
        stroke-width: 0px;
      }
    </style>
  </defs>
  <path class="cls-1" d="m60.75,12.85h-.19v-1.3h-.42v-.18h1.05v.18h-.42v1.3h-.01Zm1.3-.35l.4-1.14h.29v1.49h-.19v-1.24l-.44,1.24h-.13l-.44-1.24v1.24h-.19v-1.49h.29s.41,1.14.41,1.14h0ZM58.25,0h-17.98v4.95s-.06,1.92,2.27,1.92h10.99c.42,0,.86.09,1.26.26.61.28,1.3.85,1.3,1.99,0,1.02-.48,1.61-.97,1.93-.4.26-.86.4-1.35.4h-13.51v1.39h15.07s3.42-.15,3.42-3.7c0-1.81-1.04-2.71-1.99-3.15-.6-.28-1.27-.42-1.93-.42h-10.9c-.18,0-.37-.04-.53-.13-.23-.13-.48-.38-.48-.88V1.38h15.34V0h-.01ZM17.62,11.43v1.39h7.64c.91.01,1.8-.32,2.49-.92.35-.31.64-.69.83-1.13.19-.44.29-.91.28-1.39V3.48c0-.32.06-.64.2-.94.13-.29.34-.56.59-.75.35-.28.79-.42,1.23-.42h6.66V0h-7.93s-3.42.06-3.42,3.73v5.52c0,.45-.12.89-.35,1.29-.16.28-.41.51-.69.67-.29.16-.61.23-.94.23h-6.58ZM0,0v1.38h13.61c.38,0,.75.07,1.1.23.54.26,1.14.79,1.14,1.86s-.6,1.57-1.14,1.81c-.35.16-.73.25-1.11.25H3.5c-.6,0-1.19.13-1.73.4C.94,6.35,0,7.36,0,9.01v3.78h2.62v-3.75c0-.25.04-.48.13-.72.22-.56.76-1.46,2.03-1.46h10.18c.34,0,.69-.04,1.01-.13.94-.26,2.49-1.05,2.49-3.25C18.47.06,15.1.01,15.1.01H0s0-.01,0-.01Z"/>
</svg>