<?xml version="1.0" encoding="UTF-8"?>
<svg id="Capa_1" data-name="Capa 1" xmlns="http://www.w3.org/2000/svg" viewBox="0 0 85.64 18.5">
  <defs>
    <style>
      .cls-1 {
        fill: #fff;
        stroke-width: 0px;
      }
    </style>
  </defs>
  <path class="cls-1" d="M9.27,2.92c.73-.89,1.28-1.91,1.83-2.92-.09.61-.29,1.19-.5,1.77-.31.82-.65,1.62-1.01,2.41,1.67-.84,2.89-2.31,3.9-3.83-.56,1.93-1.73,3.72-3.41,4.85,1-.05,1.99-.22,2.97-.45-.54.44-1.17.77-1.84.97-1.28.37-2.64.32-3.92.71-.41.12-.78.43-.93.84-.22.58-.12,1.22-.06,1.82.36-.46.91-.71,1.47-.83-.8.23-1.04,1.14-1.16,1.87-.13.54.07,1.14-.23,1.63-.28.43-.88.46-1.34.4-.61-.17-1.04-.7-1.43-1.18.48.3,1.01.58,1.59.59.2,0,.34-.16.46-.29-.13-.26-.34-.48-.63-.56.26.02.51,0,.76-.06,0-.47-.12-.95-.34-1.37-.46-.81-.43-1.78-.4-2.69-.16.02-.36.03-.44.21-.2.36-.37.74-.41,1.15-.07-.17-.15-.35-.22-.53-.22.17-.47.27-.74.32-.16.25-.27.51-.34.8-.12-.24-.22-.49-.32-.74-.22.05-.56-.02-.66.24-.19.58,0,1.2.2,1.76-.24-.17-.49-.36-.66-.61-.31-.44-.41-.99-.67-1.46-.31-.59-.54-1.23-.78-1.85.89.15,1.77-.19,2.52-.65,1.03-.63,1.9-1.48,2.65-2.42.59.22,1.19.46,1.82.52.27.02.46-.19.61-.36.4-.47.68-1.03.96-1.57-.12.74-.29,1.46-.46,2.19.46-.04.87-.32,1.16-.67M3.1,5.84c.65-.07,1.29-.12,1.94-.23.13-.6.29-1.19.44-1.79-.7.77-1.54,1.41-2.38,2.02h0Z"/>
  <path class="cls-1" d="M13.65,0c2.78.5,5.31,2.11,7,4.36,1.4,1.85,2.21,4.09,2.59,6.37.27,1.55.34,3.13.29,4.69-.46-1.7-1.19-3.39-2.48-4.63-.34-.33-.74-.6-1.15-.83.26,1.85.27,3.81-.51,5.54.02-1.37-.21-2.83-1.08-3.92-.08,1.19-.55,2.4-1.45,3.21-.34.32-.74.56-1.15.75.43-.53.73-1.18.77-1.87-1.7,1.36-3.95,1.79-6.07,1.86H3.93c.12-1.23.9-2.3,1.91-2.97,1.04-.77,2.38-1.08,3.34-1.97.51-.47.97-1.1.94-1.83-.02-.56-.47-1.03-1-1.18-.58-.18-1.25-.35-1.83-.07-.27.11-.41.37-.52.63-.04-.41.12-.82.46-1.04.7-.47,1.59-.56,2.41-.52.99.04,1.96.54,2.54,1.35.52.77.56,1.73.66,2.63-.17-.23-.36-.45-.56-.65.24,1.03-.08,2.07-.44,3.03.06-.48.05-.99-.15-1.44-.18,1.01-.63,1.97-1.33,2.73.17-.39.31-.81.31-1.24-.35.28-.71.6-.9,1.02-.21.48-.17,1.03.02,1.51,1.91-.73,3.61-2.31,4.05-4.37.39.74.29,1.61.14,2.4.92-.93,1.32-2.27,1.22-3.56-.05-.83-.29-1.64-.61-2.41,1.12.79,1.87,2.04,2.09,3.38.07-1.92-.09-3.86-.51-5.73-.45-1.89-1.19-3.77-2.51-5.24h0ZM26.95,2.62c1.43.73,3.11.87,4.48,1.74.74.45,1.34,1.16,1.51,2.03.22,1.03.03,2.25-.79,2.98-.46.44-1.05.65-1.61.9,1.21,1.09,2.42,2.17,3.67,3.21.12-1.99.17-3.99.12-5.98-.02-.24,0-.51-.11-.71-.27-.36-.65-.64-1-.9.99,0,1.96.12,2.94.07,1.09-.03,2.17-.03,3.25-.13-.07.65-.15,1.29-.13,1.94-.41-.41-.9-.81-1.48-.87-.58-.06-1.15.07-1.72.22-.14.9-.08,1.81-.1,2.71.8-.03,1.6,0,2.38-.15.2-.22.39-.45.61-.65-.02.75,0,1.48.02,2.22-.92-.48-2.02-.56-3.01-.24.03.88.06,1.75.1,2.63.91-.02,1.86.18,2.74-.15.36-.11.51-.48.63-.8.05.42.26.8.43,1.19.12-.98.24-1.97.31-2.96.13-1.72-.07-3.43-.24-5.14,1.09.02,2.2,0,3.26.3.99.32,2.01.8,2.64,1.67.65.88.82,2.01.77,3.08.12.02.23.02.35.04,0-1.65-.08-3.3-.11-4.96,1.39.02,2.91-.07,4.13.71,1.04.65,1.44,2.13.83,3.19-.42.7-1.23,1-1.97,1.24.67.78,1.33,1.63,2.25,2.12-.24.02-.49.05-.73.08.27.22.56.39.85.56.76-2.47,1.28-5.02,1.95-7.52,1.35-.12,2.7-.18,4.06-.27-.38.28-.76.56-1.14.85.97,2.28,1.91,4.58,2.88,6.86.03.13.17.18.27.25.3.17.61.33.92.48-1.29-.05-2.59,0-3.88-.02.32-.2.65-.4,1-.56-.34-.9-.68-1.78-1.01-2.68-.84.04-1.67.12-2.49.21-.24.89-.46,1.78-.7,2.67.31.12.63.24.94.38-1.56-.11-3.12.07-4.67.14-.49-1.15-1.02-2.28-1.57-3.4-.04,0-.12,0-.17,0-.02.89-.05,1.77-.02,2.67.25.13.49.3.73.46-1,.11-2.01.2-3.02.27.32-1.15.56-2.33.65-3.52-.12-.02-.24-.04-.36-.07-.04.64-.21,1.29-.58,1.82-.31.46-.77.8-1.26,1.04-1.15.56-2.44.8-3.71.76-.46-.02-.91.02-1.37.08-1.65-.03-3.3-.11-4.94,0,.94,1.09,1.92,2.19,3.14,2.99-1.09.06-2.18.14-3.27.23-1.11-1.58-2.23-3.17-3.31-4.77-.59-.89-1.2-1.77-1.65-2.74-.16.02-.31.02-.46.04-.02,1.27-.09,2.54-.06,3.81.26.21.53.4.8.61-1.11.14-2.21.27-3.32.36.36-1.63.68-3.28.74-4.94-.54-.12-1.06-.29-1.56-.53.52.11,1.05.22,1.59.27,0-2.47-.23-4.94-.43-7.4M29.37,5.02c-.08,1.65-.14,3.3-.19,4.95.64-.14,1.36-.43,1.62-1.09.36-.98.35-2.1-.05-3.07-.19-.43-.49-.9-.99-.99-.14-.02-.41,0-.39.19M48.58,7.14c-.03.98.02,1.97.04,2.95.64-.17,1.3-.46,1.69-1.02.36-.51.22-1.3-.32-1.62-.42-.26-.92-.35-1.41-.32M41.72,7.39c.25,1.97.38,3.99-.03,5.94.92-.03,1.88-.26,2.58-.9.46-.41.73-1,.82-1.61-.43.27-.92.43-1.41.58.51-.73.81-1.66.61-2.55-.11-.46-.36-.95-.84-1.11-.56-.21-1.15-.24-1.73-.36M55.82,7.36c-.25.96-.49,1.92-.75,2.89.61,0,1.22,0,1.83-.02-.36-.95-.72-1.91-1.09-2.87h0ZM80.95,2.71c1.57,0,3.12,0,4.69,0-.31.2-.62.39-.97.51-.09,1.37-.07,2.74-.08,4.11-.05,3.72,0,7.45-.07,11.18-.85-1.37-1.57-2.81-2.35-4.22-1.33-2.45-2.61-4.92-3.99-7.34,0,1.69.05,3.39.11,5.08.04.75.04,1.52.16,2.26.45.16.89.32,1.33.47-1.69,0-3.38-.05-5.08-.02.35-.19.7-.36,1.06-.51.15-1.07.14-2.16.19-3.23.07-1.92.11-3.84.14-5.75-.46-.14-.93-.32-1.38-.47,1.47-.03,2.94,0,4.41-.06.56,1.01,1.14,2.02,1.72,3.03.49.83.95,1.68,1.52,2.47.03-1.63.06-3.24.04-4.86-.02-.72,0-1.45-.16-2.16-.44-.13-.85-.32-1.28-.48h0Z"/>
  <path class="cls-1" d="M62.34,6.29c.74-.22,1.53-.36,2.3-.21.85.16,1.67.4,2.5.66-.38.59-.56,1.27-.66,1.96-.76-.8-1.82-1.42-2.94-1.37-.65,0-1.32.22-1.76.71-.46.49-.56,1.22-.42,1.86.12.57.48,1.05.9,1.45-.31-.04-.63-.12-.87-.33-.09-.06-.16-.17-.27-.14l.08.07c.15.72.41,1.5,1.06,1.94.94.63,2.2.6,3.19.09.14-.38.03-.82.02-1.23.02-.21-.22-.28-.36-.37-.65-.34-1.34-.58-2.04-.83,1.19,0,2.37-.06,3.55-.1.06,1.32.11,2.65.46,3.93-1.23.03-2.47.08-3.7.09-.99,0-2.01-.32-2.69-1.05-.71-.74-.99-1.77-1.08-2.77-.1-1.03.18-2.11.82-2.93.5-.63,1.15-1.16,1.91-1.43h0Z"/>
  <path class="cls-1" d="M68.97,6.67c.79-.58,1.85-.68,2.78-.45.82.18,1.53.72,1.99,1.42.62.93.85,2.06.86,3.17.35-.36.62-.79.86-1.23-.07.78-.34,1.53-.69,2.22-.18.38-.44.73-.59,1.14-.39.92-1.25,1.66-2.27,1.75-.97.05-2.06.07-2.86-.56-.85-.69-1.13-1.82-1.33-2.84-.22.32-.42.63-.64.94-.25-1.51.16-3.07.91-4.38.25-.44.55-.87.97-1.17M70.34,7.65c-.49.11-.93.42-1.19.85-.38.61-.46,1.37-.38,2.08.07.72.27,1.48.78,2.02.51.55,1.31.75,2.03.64.64-.11,1.16-.58,1.43-1.14.36-.67.37-1.47.25-2.21-.12-.69-.42-1.38-.97-1.82-.54-.44-1.28-.56-1.95-.42h0Z"/>
  <path class="cls-1" d="M70.97,8.34c.17.66.32,1.44.94,1.85-.26.1-.46.31-.57.56-.3.66-.32,1.38-.4,2.09-.02-.7-.04-1.45-.4-2.09-.13-.24-.34-.42-.57-.56.65-.39.84-1.17,1-1.85h0Z"/>
</svg>