<?xml version="1.0" encoding="UTF-8"?>
<svg id="Capa_1" data-name="Capa 1" xmlns="http://www.w3.org/2000/svg" viewBox="0 0 65.41 10.02">
  <defs>
    <style>
      .cls-1 {
        fill: #fff;
        stroke-width: 0px;
      }
    </style>
  </defs>
  <path id="path20" class="cls-1" d="m62.1,4.4v1.36h.96v1.35c0,.12,0,.25-.02.36-.04.25-.28.68-.96.68s-.91-.43-.95-.68c-.02-.1-.02-.23-.02-.36V2.84c0-.15.01-.32.04-.44.05-.23.25-.68.93-.68.72,0,.89.47.93.68.03.13.03.36.03.36v.52h2.35v-.31s.01-.32-.02-.62c-.18-1.75-1.62-2.31-3.28-2.31s-3.08.56-3.28,2.31c-.02.16-.05.45-.05.62v3.93c0,.17,0,.3.04.62.15,1.71,1.63,2.31,3.29,2.31s3.13-.6,3.29-2.31c.03-.31.03-.45.03-.62v-2.51s-3.31,0-3.31,0ZM45.86.3h-2.36v6.92c0,.12,0,.26-.02.36-.05.23-.25.68-.9.68s-.85-.45-.89-.68c-.02-.1-.03-.23-.02-.36V.3h-2.36v6.7c0,.17.01.53.02.62.16,1.75,1.54,2.31,3.26,2.31s3.1-.57,3.26-2.31c.01-.09.03-.45.02-.62,0,0,0-6.7,0-6.7ZM24.13.3l-1.18,7.31-1.18-7.31h-3.81l-.2,9.35h2.34l.06-8.66,1.61,8.66h2.37l1.61-8.66.06,8.66h2.34l-.21-9.35h-3.81ZM10.01.3l-1.73,9.35h2.53L12.11.99l1.27,8.66h2.51L14.17.3h-4.16s0,0,0,0Zm44.12,7.53l-2.2-7.53h-3.47v9.25h2.3l-.13-7.77,2.36,7.77h3.33V.3h-2.31l.13,7.53Zm-21.23-5.09c-.04-.18-.03-.38,0-.48.07-.3.27-.63.85-.63.54,0,.86.34.86.84v.57h2.31v-.65c0-2.01-1.81-2.33-3.11-2.33-1.65,0-2.99.54-3.24,2.06-.06.41-.08.78.02,1.25.4,1.89,3.69,2.44,4.17,3.63.08.23.06.52.02.69-.07.31-.28.62-.9.62-.58,0-.93-.33-.93-.84v-.9h-2.48v.71c0,2.07,1.62,2.69,3.36,2.69s3.05-.57,3.27-2.12c.11-.8.03-1.32-.02-1.52-.39-1.94-3.89-2.52-4.16-3.6h0Zm-30.41-.02c-.05-.19-.03-.39,0-.49.06-.3.27-.63.86-.63.55,0,.87.34.87.85v.58h2.33v-.66C6.53.32,4.7,0,3.38,0,1.72,0,.36.55.11,2.08c-.07.42-.08.79.02,1.26.4,1.91,3.73,2.46,4.21,3.67.09.22.06.51.02.69-.08.31-.29.63-.91.63-.58,0-.93-.34-.93-.85v-.9H0v.71c0,2.09,1.64,2.72,3.4,2.72s3.08-.58,3.3-2.14c.11-.81.03-1.33,0-1.53-.39-1.96-3.94-2.54-4.21-3.64h0Z"/>
</svg>